<svg width="895" height="126" viewBox="0 0 895 126" fill="none" xmlns="http://www.w3.org/2000/svg">
<path fill-rule="evenodd" clip-rule="evenodd" d="M46.8038 59.665C39.5641 59.665 33.6407 53.7416 33.6407 46.5019C33.6407 39.2622 39.5641 33.3388 46.8038 33.3388C54.0435 33.3388 59.9669 39.2622 59.9669 46.5019C59.9669 53.7416 54.0435 59.665 46.8038 59.665ZM66.5484 13.594C66.5484 6.35432 72.4718 0.430908 79.7115 0.430908C86.9512 0.430908 92.8746 6.35432 92.8746 13.594C92.8746 20.8338 86.9512 26.7572 79.7115 26.7572C72.4718 26.7572 66.5484 20.8338 66.5484 13.594ZM99.4562 46.5019C99.4562 39.2622 105.38 33.3388 112.619 33.3388C119.859 33.3388 125.782 39.2622 125.782 46.5019C125.782 53.7416 119.859 59.665 112.619 59.665C105.38 59.665 99.4562 53.7416 99.4562 46.5019ZM0.73291 79.4097C0.73291 72.17 6.65631 66.2466 13.896 66.2466C21.1357 66.2466 27.0591 72.17 27.0591 79.4097C27.0591 86.6495 21.1357 92.5729 13.896 92.5729C6.65631 92.5729 0.73291 86.6495 0.73291 79.4097ZM132.364 79.4097C132.364 72.17 138.287 66.2466 145.527 66.2466C152.767 66.2466 158.69 72.17 158.69 79.4097C158.69 86.6495 152.767 92.5729 145.527 92.5729C138.287 92.5729 132.364 86.6495 132.364 79.4097ZM46.8038 92.4443C39.5641 92.4443 33.6407 86.5209 33.6407 79.2812C33.6407 72.0415 39.5641 66.1181 46.8038 66.1181C54.0435 66.1181 59.9669 72.0415 59.9669 79.2812C59.9669 86.5209 54.0435 92.4443 46.8038 92.4443ZM66.5484 46.3734C66.5484 39.1336 72.4718 33.2102 79.7115 33.2102C86.9512 33.2102 92.8746 39.1336 92.8746 46.3734C92.8746 53.6131 86.9512 59.5365 79.7115 59.5365C72.4718 59.5365 66.5484 53.6131 66.5484 46.3734ZM99.4562 79.2812C99.4562 72.0415 105.38 66.1181 112.619 66.1181C119.859 66.1181 125.782 72.0415 125.782 79.2812C125.782 86.5209 119.859 92.4443 112.619 92.4443C105.38 92.4443 99.4562 86.5209 99.4562 79.2812ZM0.73291 112.189C0.73291 104.949 6.65631 99.0259 13.896 99.0259C21.1357 99.0259 27.0591 104.949 27.0591 112.189C27.0591 119.429 21.1357 125.352 13.896 125.352C6.65631 125.352 0.73291 119.429 0.73291 112.189ZM132.364 112.189C132.364 104.949 138.287 99.0259 145.527 99.0259C152.767 99.0259 158.69 104.949 158.69 112.189C158.69 119.429 152.767 125.352 145.527 125.352C138.287 125.352 132.364 119.429 132.364 112.189ZM217.167 120.962L264.123 4.81699H284.863L331.985 120.962H312.406L299.684 87.4461H248.576L235.916 120.962H217.167ZM277.894 30.0371L294.079 72.6791H254.154L270.262 30.0371C270.594 29.1522 270.925 28.3226 271.257 27.5483C271.7 26.6634 272.032 25.7785 272.253 24.8935C272.695 24.0086 273.027 23.1237 273.248 22.2388L274.244 19.584L275.239 22.5706C275.571 23.5662 275.958 24.5617 276.401 25.5572L277.064 27.8801C277.396 28.5438 277.673 29.2628 277.894 30.0371ZM340.502 120.962V40.6561H356.929V45.4679V46.9612V48.7863C356.818 49.2288 356.763 49.7265 356.763 50.2796V51.7729C358.975 47.7908 362.238 44.5276 366.552 41.9835C370.866 39.3288 375.788 38.0014 381.319 38.0014C387.403 38.0014 392.602 39.2734 396.916 41.8176C401.34 44.3617 404.714 48.0673 407.037 52.9343C409.36 57.8014 410.521 63.5534 410.521 70.1902V120.962H394.095V72.5131C394.095 65.4338 392.713 60.1243 389.947 56.5846C387.182 52.9343 382.978 51.1092 377.337 51.1092C373.244 51.1092 369.649 52.1047 366.552 54.0958C363.455 55.9763 361.077 58.631 359.418 62.0601C357.758 65.3785 356.929 69.0288 356.929 73.0109V120.962H340.502ZM447.15 119.469C450.8 121.128 455.004 121.958 459.76 121.958C461.751 121.958 463.632 121.847 465.401 121.626C467.282 121.405 468.831 121.128 470.047 120.796V107.523C467.946 107.855 465.955 108.02 464.074 108.02C461.419 108.02 459.207 107.578 457.437 106.693C455.778 105.808 454.506 104.425 453.621 102.545C452.736 100.665 452.294 98.231 452.294 95.2444V53.9299H470.047V40.6561H452.294V13.1131H435.701V40.6561H419.441V53.9299H435.701V97.2355C435.701 102.987 436.697 107.744 438.688 111.505C440.79 115.155 443.61 117.81 447.15 119.469ZM482.427 26.5528V7.9695H500.678V26.5528H482.427ZM483.422 107.523V53.9299V40.6561H491.552H499.848V107.523V120.962H483.422V107.523ZM519.64 40.6561V120.962H536.066V74.0064C536.066 69.6925 536.84 65.821 538.389 62.3919C539.938 58.8522 542.095 56.0869 544.86 54.0958C547.625 52.1047 550.778 51.1092 554.318 51.1092C559.627 51.1092 563.498 53.045 565.932 56.9165C568.366 60.6774 569.582 66.1528 569.582 73.3428V120.962H586.174V73.5087C586.174 69.3053 586.893 65.5444 588.331 62.226C589.769 58.7969 591.871 56.0869 594.636 54.0958C597.402 52.1047 600.61 51.1092 604.26 51.1092C609.68 51.1092 613.607 52.9897 616.04 56.7505C618.585 60.5114 619.857 65.9869 619.857 73.1768V120.962H636.283V70.1902C636.283 63.3321 635.066 57.4695 632.633 52.6025C630.31 47.7355 627.047 44.0852 622.843 41.6517C618.64 39.2181 613.828 38.0014 608.408 38.0014C602.877 38.0014 597.789 39.4394 593.143 42.3153C588.608 45.0807 584.958 48.7863 582.192 53.4321C580.091 48.6757 576.993 44.9148 572.901 42.1494C568.919 39.3841 564.383 38.0014 559.295 38.0014C554.096 38.0014 549.506 39.2734 545.524 41.8176C541.542 44.3617 538.334 47.6802 535.9 51.7729V50.2796C536.011 49.8371 536.066 49.3394 536.066 48.7863V47.293V45.9656V40.6561H519.64ZM690.027 123.617C682.063 123.617 675.094 121.958 669.121 118.639C663.148 115.21 658.502 110.288 655.184 103.872C651.865 97.4567 650.206 89.6584 650.206 80.4774C650.206 72.2919 651.865 64.9913 655.184 58.5757C658.613 52.0494 663.259 47.0165 669.121 43.4768C675.094 39.8265 681.787 38.0014 689.198 38.0014C697.162 38.0014 703.965 39.7712 709.606 43.3109C715.247 46.7399 719.561 51.7176 722.548 58.2439C725.535 64.6595 727.028 72.1813 727.028 80.8092V84.2936H666.964C667.075 89.6031 668.126 94.2489 670.117 98.231C672.108 102.213 674.818 105.31 678.247 107.523C681.787 109.624 685.769 110.675 690.193 110.675C695.281 110.675 699.596 109.458 703.135 107.025C706.785 104.591 708.998 100.775 709.772 95.5763H726.364C725.811 100.775 724.041 105.532 721.055 109.846C718.068 114.049 713.92 117.423 708.611 119.967C703.412 122.4 697.217 123.617 690.027 123.617ZM709.606 72.5131C709.606 65.8763 707.781 60.5668 704.131 56.5846C700.48 52.6025 695.503 50.6114 689.198 50.6114C683.114 50.6114 678.026 52.7131 673.933 56.9165C669.951 61.0092 667.683 66.2081 667.13 72.5131H709.606ZM759.239 119.469C762.889 121.128 767.092 121.958 771.849 121.958C773.84 121.958 775.72 121.847 777.49 121.626C779.371 121.405 780.919 121.128 782.136 120.796V107.523C780.034 107.855 778.043 108.02 776.163 108.02C773.508 108.02 771.296 107.578 769.526 106.693C767.867 105.808 766.595 104.425 765.71 102.545C764.825 100.665 764.382 98.231 764.382 95.2444V53.9299H782.136V40.6561H764.382V13.1131H747.79V40.6561H731.53V53.9299H747.79V97.2355C747.79 102.987 748.786 107.744 750.777 111.505C752.878 115.155 755.699 117.81 759.239 119.469ZM818.574 123.617C813.596 123.617 808.951 122.622 804.637 120.63C800.433 118.639 797.06 115.763 794.515 112.003C792.082 108.242 790.865 103.872 790.865 98.8947C790.865 91.2623 793.465 85.455 798.663 81.4729C803.862 77.3802 810.72 74.6701 819.238 73.3428L834.337 71.0198C836.438 70.688 838.098 70.2455 839.314 69.6925C840.531 69.0288 841.416 68.1992 841.969 67.2036C842.522 66.2081 842.799 64.936 842.799 63.3874C842.799 59.5159 841.416 56.4187 838.651 54.0958C835.885 51.7729 832.235 50.6114 827.7 50.6114C822.28 50.6114 818.021 51.9941 814.924 54.7595C811.827 57.5249 810.112 61.2858 809.78 66.0422H793.022C793.354 60.8433 794.903 56.1422 797.668 51.9388C800.433 47.6248 804.305 44.2511 809.282 41.8176C814.26 39.2734 820.012 38.0014 826.538 38.0014C833.618 38.0014 839.591 39.2734 844.458 41.8176C849.325 44.3617 852.975 48.0673 855.409 52.9343C857.842 57.8014 859.059 63.6087 859.059 70.3561V120.962H843.462V117.146C843.462 116.04 843.518 114.879 843.628 113.662C843.739 112.445 843.794 111.228 843.794 110.011C841.693 114.325 838.485 117.699 834.171 120.133C829.857 122.456 824.658 123.617 818.574 123.617ZM821.893 111.007C825.764 111.007 829.304 110.177 832.512 108.518C835.83 106.748 838.374 104.315 840.144 101.218C842.024 98.0098 842.965 94.3595 842.965 90.2668V79.6478C842.412 80.3115 841.361 80.9198 839.812 81.4729C838.374 82.026 836.383 82.5791 833.839 83.1321L824.215 84.9573C819.127 85.9528 815.09 87.5567 812.103 89.769C809.227 91.8707 807.789 94.802 807.789 98.5629C807.789 102.324 809.117 105.366 811.771 107.689C814.537 109.901 817.91 111.007 821.893 111.007ZM877.908 18.2567V107.523V120.962H894.334V107.523V4.81699H886.038H877.908V18.2567Z" fill="white"/>
</svg>
